<?xml version="1.0" standalone="no"?>
<!DOCTYPE svg PUBLIC "-//W3C//DTD SVG 20010904//EN"
 "http://www.w3.org/TR/2001/REC-SVG-20010904/DTD/svg10.dtd">
<svg version="1.0" xmlns="http://www.w3.org/2000/svg"
 width="341.000000pt" height="341.000000pt" viewBox="0 0 341.000000 341.000000"
 preserveAspectRatio="xMidYMid meet">

<g transform="translate(0.000000,341.000000) scale(0.100000,-0.100000)"
fill="#000000" stroke="none">
<path d="M1421 3010 c-169 -24 -371 -112 -535 -235 -88 -65 -214 -196 -267
-278 -87 -133 -160 -311 -185 -452 -18 -97 -20 -326 -4 -415 71 -389 364 -756
712 -890 280 -108 514 -116 827 -29 258 73 478 246 642 508 214 341 236 753
60 1116 -168 344 -469 581 -841 661 -88 19 -318 27 -409 14z m444 -173 c170
-52 282 -112 409 -218 262 -219 401 -557 368 -891 -12 -113 -44 -251 -64 -275
-8 -10 -52 -13 -164 -13 l-154 0 0 51 0 51 57 -4 c34 -2 58 1 60 8 2 6 -24 43
-57 82 -33 40 -60 74 -60 77 0 3 23 5 50 4 28 -1 53 1 56 4 4 3 -15 30 -42 60
-27 29 -64 82 -83 116 l-33 63 -14 -28 c-8 -16 -37 -56 -65 -89 -94 -109 -97
-126 -25 -128 20 -1 36 -4 36 -7 0 -4 -15 -26 -32 -50 -63 -83 -78 -105 -78
-114 0 -9 73 -3 101 8 14 6 16 0 11 -46 -2 -29 -7 -56 -11 -59 -3 -3 -108 -3
-232 -1 l-227 4 -6 30 c-3 17 -6 55 -6 85 0 49 2 54 18 48 81 -35 242 -63 242
-43 0 5 -54 67 -120 138 -132 141 -146 167 -79 144 22 -8 75 -17 117 -21 l77
-6 -101 109 c-55 60 -110 122 -122 138 -24 32 -31 65 -9 49 37 -30 167 -55
167 -33 0 6 -38 59 -85 118 -47 59 -99 130 -116 158 -28 49 -56 81 -63 73 -1
-2 -22 -33 -46 -69 -45 -68 -96 -132 -167 -214 -58 -65 -57 -80 5 -74 26 3 69
15 95 28 88 42 75 12 -66 -147 -56 -62 -102 -119 -102 -126 0 -21 53 -19 120
3 36 12 67 26 70 31 10 15 35 10 35 -6 0 -8 -33 -52 -72 -96 -156 -176 -179
-209 -139 -209 40 0 128 21 164 40 20 11 40 20 42 20 3 0 5 -38 5 -85 l0 -85
-234 0 c-257 0 -246 -3 -246 62 0 30 0 31 43 23 106 -19 109 -6 22 106 -35 46
-65 87 -65 91 0 4 12 3 26 -2 31 -12 104 -13 104 -2 0 5 -25 37 -56 71 -31 34
-71 89 -89 122 l-31 59 -50 -72 c-27 -40 -66 -92 -87 -115 -48 -52 -42 -67 24
-61 27 3 49 3 49 0 0 -7 -78 -112 -108 -144 -35 -39 -21 -52 49 -45 l59 5 0
-49 0 -49 -158 0 -159 0 -21 78 c-37 138 -45 207 -39 366 6 167 23 245 81 372
61 131 146 241 279 360 132 119 253 183 431 230 83 22 106 24 261 20 145 -3
182 -8 250 -29z m645 -1527 c0 -5 -5 -21 -12 -35 l-11 -25 -883 0 -882 0 -10
29 c-8 22 -7 31 1 35 24 9 1797 6 1797 -4z m-134 -173 c4 -4 -5 -21 -21 -37
l-29 -30 -720 1 c-714 1 -721 1 -743 22 -37 34 -29 46 35 50 102 8 1470 2
1478 -6z m-222 -178 c5 -5 8 -10 5 -11 -2 -2 -19 -13 -37 -26 l-33 -23 -485
-1 -485 0 -46 30 c-55 36 -50 40 57 45 154 6 1015 -6 1024 -14z"/>
<path d="M2074 2480 c-37 -12 -106 -76 -130 -122 -23 -42 -23 -132 -1 -173 34
-62 90 -110 149 -126 118 -31 269 93 268 221 -1 59 -64 155 -122 186 -35 18
-125 26 -164 14z m126 -137 c43 -36 53 -66 36 -107 -18 -43 -51 -66 -96 -66
-46 0 -76 21 -90 65 -14 44 1 80 49 112 44 30 62 29 101 -4z"/>
<path d="M881 631 c-64 -17 -68 -65 -6 -95 35 -18 70 -20 326 -25 430 -9 1084
3 1134 20 49 17 69 59 42 86 -15 15 -46 17 -274 16 -158 0 -289 -5 -338 -13
-92 -15 -257 -15 -365 0 -103 13 -477 22 -519 11z"/>
</g>
</svg>
