{
	"asset":{
		"generator":"Khronos glTF Blender I/O v4.1.63",
		"version":"2.0"
	},
	"scene":0,
	"scenes":[
		{
			"name":"Scene",
			"nodes":[
				0,
				1,
				2,
				3
			]
		}
	],
	"nodes":[
		{
			"camera":0,
			"name":"Camera",
			"rotation":[
				0.0009337167721241713,
				-0.9999599456787109,
				-0.006324810441583395,
				0.00626439368352294
			],
			"translation":[
				0.02601015567779541,
				2.8463077545166016,
				-7.857812404632568
			]
		},
		{
			"mesh":0,
			"name":"Plane",
			"translation":[
				0,
				2.0684151649475098,
				0
			]
		},
		{
			"mesh":1,
			"name":"Icosphere",
			"translation":[
				0,
				2.0684151649475098,
				0
			]
		},
		{
			"name":"Spot",
			"rotation":[
				-0.8852789998054504,
				-0.13259203732013702,
				-0.40175482630729675,
				0.19311591982841492
			],
			"translation":[
				10.34148120880127,
				8.887707710266113,
				-9.269644737243652
			]
		}
	],
	"cameras":[
		{
			"name":"Camera",
			"perspective":{
				"aspectRatio":1.7777777777777777,
				"yfov":0.3641052198583846,
				"zfar":413.1000061035156,
				"znear":0.10000000149011612
			},
			"type":"perspective"
		}
	],
	"materials":[
		{
			"doubleSided":true,
			"name":"Material.001",
			"pbrMetallicRoughness":{
				"baseColorFactor":[
					0.800000011920929,
					0.800000011920929,
					0.800000011920929,
					1
				],
				"metallicFactor":0,
				"roughnessFactor":0.5
			}
		}
	],
	"meshes":[
		{
			"name":"Plane",
			"primitives":[
				{
					"attributes":{
						"POSITION":0,
						"NORMAL":1
					},
					"indices":2,
					"material":0
				}
			]
		},
		{
			"name":"Icosphere",
			"primitives":[
				{
					"attributes":{
						"POSITION":3,
						"NORMAL":4,
						"TEXCOORD_0":5,
						"TANGENT":6
					},
					"indices":7,
					"material":0
				}
			]
		}
	],
	"accessors":[
		{
			"bufferView":0,
			"componentType":5126,
			"count":36480,
			"max":[
				1.3497555255889893,
				1.3318053483963013,
				1.3678324222564697
			],
			"min":[
				-1.3497520685195923,
				-1.3509045839309692,
				-1.3339157104492188
			],
			"type":"VEC3"
		},
		{
			"bufferView":1,
			"componentType":5126,
			"count":36480,
			"type":"VEC3"
		},
		{
			"bufferView":2,
			"componentType":5123,
			"count":220416,
			"type":"SCALAR"
		},
		{
			"bufferView":3,
			"componentType":5126,
			"count":729,
			"max":[
				0.800000011920929,
				0.800000011920929,
				0.7999999523162842
			],
			"min":[
				-0.7999999523162842,
				-0.800000011920929,
				-0.7999999523162842
			],
			"type":"VEC3"
		},
		{
			"bufferView":4,
			"componentType":5126,
			"count":729,
			"type":"VEC3"
		},
		{
			"bufferView":5,
			"componentType":5126,
			"count":729,
			"type":"VEC2"
		},
		{
			"bufferView":6,
			"componentType":5126,
			"count":729,
			"type":"VEC4"
		},
		{
			"bufferView":7,
			"componentType":5123,
			"count":3840,
			"type":"SCALAR"
		}
	],
	"bufferViews":[
		{
			"buffer":0,
			"byteLength":437760,
			"byteOffset":0,
			"target":34962
		},
		{
			"buffer":0,
			"byteLength":437760,
			"byteOffset":437760,
			"target":34962
		},
		{
			"buffer":0,
			"byteLength":440832,
			"byteOffset":875520,
			"target":34963
		},
		{
			"buffer":0,
			"byteLength":8748,
			"byteOffset":1316352,
			"target":34962
		},
		{
			"buffer":0,
			"byteLength":8748,
			"byteOffset":1325100,
			"target":34962
		},
		{
			"buffer":0,
			"byteLength":5832,
			"byteOffset":1333848,
			"target":34962
		},
		{
			"buffer":0,
			"byteLength":11664,
			"byteOffset":1339680,
			"target":34962
		},
		{
			"buffer":0,
			"byteLength":7680,
			"byteOffset":1351344,
			"target":34963
		}
	],
	"buffers":[
		{
			"byteLength":1359024,
			"uri":"formealien.bin"
		}
	]
}
